<svg width="704" height="147" viewBox="0 0 704 147" fill="none" xmlns="http://www.w3.org/2000/svg">
<g clip-path="url(#clip0)">
<path d="M95.79 126.133L95.9062 125.994V125.812V103.117V102.617H95.4062H73.0234H72.5234V103.117V111.75V112.25H73.0234H83.1875V121.343C81.4333 122.987 78.5047 123.867 74.2734 123.867C70.0291 123.867 66.8698 122.398 64.7137 119.499C62.5395 116.575 61.4141 112.194 61.4141 106.281V102.65C61.44 96.7826 62.4891 92.4489 64.4886 89.5746C66.4688 86.7281 69.3413 85.2969 73.1797 85.2969C76.2268 85.2969 78.5456 86.0327 80.199 87.4429L80.2017 87.4452C81.8754 88.8521 82.9968 91.1057 83.5063 94.2899L83.5736 94.7109H84H95.4062H95.9667L95.903 94.1541C95.1891 87.9144 92.8931 83.1102 88.9715 79.8059C85.0516 76.477 79.6492 74.8438 72.8281 74.8438C67.9058 74.8438 63.5813 75.9693 59.8724 78.2372C56.1864 80.481 53.3624 83.7375 51.3977 87.9854L51.3972 87.9867C49.4596 92.2068 48.5 97.19 48.5 102.922L48.5 106.789L48.5 106.794C48.5527 112.374 49.5927 117.255 51.637 121.423L51.6382 121.426C53.7098 125.595 56.6397 128.796 60.4274 131.01L60.431 131.012C64.2411 133.197 68.6523 134.281 73.6484 134.281C78.3852 134.281 82.714 133.584 86.6295 132.182L86.6323 132.181C90.549 130.752 93.6119 128.741 95.79 126.133ZM107.185 130.212L107.187 130.214C109.702 132.948 113.316 134.281 117.945 134.281C122.546 134.281 126.279 132.833 129.095 129.918L129.322 133.036L129.355 133.5H129.82H140.445H140.945V133V90.7344V90.2344H140.445H129.117H128.617V90.7344V120.528C127.284 122.906 124.874 124.141 121.227 124.141C119.311 124.141 117.963 123.617 117.084 122.653C116.198 121.681 115.711 120.173 115.711 118.039V90.7344V90.2344H115.211H103.922H103.422V90.7344L103.422 118.43L103.422 118.435C103.475 123.532 104.703 127.484 107.185 130.212ZM152.908 128.435L152.909 128.436C156.922 132.342 162.105 134.281 168.414 134.281C171.994 134.281 175.269 133.605 178.232 132.243L178.236 132.242C181.198 130.854 183.56 128.925 185.307 126.453L185.536 126.128L185.271 125.831L179.724 119.62L179.325 119.173L178.957 119.646C176.613 122.663 173.367 124.18 169.156 124.18C166.451 124.18 164.245 123.382 162.5 121.81C160.9 120.346 159.884 118.432 159.465 116.039H185.797H186.297V115.539V110.93C186.297 104.157 184.61 98.8517 181.167 95.0852C177.748 91.317 173.059 89.4531 167.164 89.4531C163.228 89.4531 159.7 90.3849 156.594 92.2588C153.511 94.1089 151.129 96.7625 149.449 100.202C147.771 103.613 146.938 107.479 146.938 111.789V112.883C146.938 119.321 148.916 124.524 152.908 128.435ZM172.308 101.507L172.311 101.511C173.5 102.747 174.152 104.536 174.203 106.951V107.344H159.583C160 104.878 160.825 103.011 162.024 101.698C163.327 100.3 165.012 99.5938 167.125 99.5938C169.422 99.5938 171.124 100.252 172.308 101.507ZM194.5 95.51L194.499 95.5116C191.472 99.5303 189.984 104.895 189.984 111.555C189.984 118.599 191.495 124.176 194.579 128.225L194.581 128.228C197.697 132.257 201.841 134.281 206.969 134.281C211.166 134.281 214.676 132.746 217.469 129.696L217.879 133.06L217.932 133.5H218.375H228.57H229.07V133V73V72.5H228.57H217.242H216.742V73V93.3064C214.109 90.7406 210.869 89.4531 207.047 89.4531C201.769 89.4531 197.569 91.4728 194.5 95.51ZM241.267 128.435L241.268 128.436C245.281 132.342 250.465 134.281 256.773 134.281C260.353 134.281 263.629 133.605 266.592 132.243L266.595 132.242C269.557 130.854 271.919 128.925 273.666 126.453L273.896 126.128L273.631 125.831L268.084 119.62L267.684 119.173L267.316 119.646C264.972 122.663 261.726 124.18 257.516 124.18C254.81 124.18 252.604 123.382 250.859 121.809C249.259 120.346 248.243 118.432 247.825 116.039H274.156H274.656V115.539V110.93C274.656 104.157 272.969 98.8517 269.526 95.0852C266.107 91.317 261.418 89.4531 255.523 89.4531C251.587 89.4531 248.059 90.3849 244.954 92.2588C241.87 94.1087 239.489 96.7619 237.809 100.201C236.13 103.612 235.297 107.479 235.297 111.789V112.883C235.297 119.321 237.275 124.524 241.267 128.435ZM260.668 101.507L260.671 101.511C261.859 102.747 262.511 104.536 262.562 106.951V107.344H247.942C248.359 104.878 249.184 103.011 250.383 101.698C251.686 100.3 253.371 99.5938 255.484 99.5938C257.781 99.5938 259.483 100.252 260.668 101.507ZM204.262 121.203C202.958 119.209 202.273 116.287 202.273 112.375C202.273 107.996 202.951 104.796 204.24 102.706C205.504 100.655 207.379 99.6328 209.938 99.6328C211.598 99.6328 212.979 99.985 214.103 100.664C215.198 101.326 216.08 102.317 216.742 103.662V120.11C216.068 121.454 215.174 122.446 214.066 123.108C212.928 123.788 211.533 124.141 209.859 124.141C207.389 124.141 205.545 123.164 204.262 121.203Z" fill="white" stroke="black"/>
<path d="M304.1 119.198L304.1 119.198L304.108 119.205C305.197 120.342 305.766 121.899 305.766 123.938C305.766 125.876 305.146 127.374 303.936 128.49C302.724 129.583 301.046 130.156 298.844 130.156C296.189 130.156 294.217 129.372 292.85 127.863C291.5 126.318 290.789 124.071 290.789 121.047V120.547H290.289H279H278.5V121.047C278.5 126.48 279.986 130.893 283.004 134.234L283.007 134.237C285.966 137.458 290.079 139.37 295.297 140.008V147.297V147.797H295.797H302.008H302.508V147.297V139.971C307.226 139.415 310.995 137.767 313.768 134.994C316.635 132.127 318.055 128.4 318.055 123.859C318.055 121.44 317.683 119.303 316.924 117.459C316.17 115.601 315.078 113.957 313.652 112.531C312.233 111.086 310.5 109.808 308.46 108.695C306.43 107.562 303.845 106.368 300.71 105.114C297.624 103.869 295.586 102.678 294.518 101.561C293.478 100.473 292.938 99.0176 292.938 97.1406C292.938 95.0984 293.495 93.571 294.553 92.4903L294.553 92.4903L294.556 92.4864C295.611 91.3852 297.12 90.8047 299.156 90.8047C301.18 90.8047 302.752 91.5277 303.925 92.9647L303.925 92.9648L303.931 92.9717C305.124 94.3796 305.766 96.5718 305.766 99.6406V100.141H306.266H317.555H318.055V99.6406C318.055 94.4756 316.729 90.2278 314.036 86.9419C311.424 83.7299 307.842 81.7701 303.328 81.0463V73V72.5H302.828H296.578H296.078V73V80.911C291.53 81.4479 287.829 83.112 285.014 85.9277C282.097 88.8444 280.648 92.5834 280.648 97.1016C280.648 99.7049 281.06 101.977 281.901 103.903L281.901 103.903L281.904 103.909C282.763 105.816 283.947 107.485 285.453 108.91L285.453 108.91L285.46 108.916C286.981 110.304 288.789 111.539 290.879 112.624L290.884 112.626C292.961 113.678 295.427 114.739 298.277 115.812C301.09 116.87 303.008 118.008 304.1 119.198Z" fill="#23A718" stroke="black"/>
<mask id="path-3-outside-1" maskUnits="userSpaceOnUse" x="361.156" y="72" width="275" height="63" fill="black">
<rect fill="white" x="361.156" y="72" width="275" height="63"/>
<path d="M396.068 109.496H373.77V133.203H362.156V75.1914H398.856V84.8733H373.77V99.8543H396.068V109.496Z"/>
<path d="M416.663 133.203H405.437V90.0928H416.663V133.203ZM404.779 78.9366C404.779 77.2101 405.334 75.789 406.443 74.6734C407.579 73.5578 409.114 73 411.05 73C412.96 73 414.483 73.5578 415.618 74.6734C416.754 75.789 417.321 77.2101 417.321 78.9366C417.321 80.6897 416.741 82.1241 415.579 83.2397C414.444 84.3553 412.934 84.9131 411.05 84.9131C409.166 84.9131 407.643 84.3553 406.482 83.2397C405.346 82.1241 404.779 80.6897 404.779 78.9366Z"/>
<path d="M436.213 90.0928L436.562 95.0732C439.555 91.2216 443.568 89.2959 448.601 89.2959C453.04 89.2959 456.344 90.6373 458.511 93.3201C460.679 96.0028 461.789 100.014 461.841 105.353V133.203H450.653V105.632C450.653 103.188 450.137 101.422 449.104 100.332C448.072 99.2169 446.356 98.659 443.956 98.659C440.807 98.659 438.446 100.04 436.871 102.803V133.203H425.683V90.0928H436.213Z"/>
<path d="M494.63 133.203C494.114 132.167 493.74 130.879 493.508 129.338C490.798 132.446 487.275 134 482.939 134C478.835 134 475.429 132.778 472.719 130.334C470.035 127.891 468.693 124.809 468.693 121.091C468.693 116.522 470.332 113.016 473.609 110.572C476.913 108.128 481.674 106.893 487.894 106.867H493.043V104.396C493.043 102.404 492.54 100.811 491.533 99.6153C490.552 98.42 488.991 97.8223 486.849 97.8223C484.965 97.8223 483.481 98.2872 482.397 99.2169C481.339 100.147 480.81 101.422 480.81 103.042H469.622C469.622 100.545 470.37 98.2341 471.867 96.1091C473.364 93.9841 475.48 92.324 478.216 91.1287C480.952 89.9068 484.023 89.2959 487.43 89.2959C492.591 89.2959 496.682 90.6373 499.701 93.3201C502.747 95.9763 504.27 99.7215 504.27 104.556V123.242C504.295 127.333 504.85 130.427 505.934 132.526V133.203H494.63ZM485.378 125.195C487.03 125.195 488.552 124.823 489.946 124.079C491.34 123.309 492.372 122.286 493.043 121.011V113.6H488.862C483.262 113.6 480.281 115.592 479.919 119.577L479.881 120.254C479.881 121.688 480.371 122.87 481.352 123.8C482.333 124.73 483.675 125.195 485.378 125.195Z"/>
<path d="M523.161 90.0928L523.51 95.0732C526.503 91.2216 530.517 89.2959 535.549 89.2959C539.988 89.2959 543.292 90.6373 545.46 93.3201C547.627 96.0028 548.737 100.014 548.789 105.353V133.203H537.601V105.632C537.601 103.188 537.085 101.422 536.052 100.332C535.02 99.2169 533.304 98.659 530.904 98.659C527.755 98.659 525.394 100.04 523.819 102.803V133.203H512.631V90.0928H523.161Z"/>
<path d="M574.726 124.717C576.791 124.717 578.468 124.132 579.759 122.963C581.049 121.795 581.72 120.241 581.772 118.302H592.263C592.237 121.224 591.463 123.906 589.94 126.35C588.417 128.767 586.327 130.653 583.669 132.008C581.036 133.336 578.12 134 574.92 134C568.932 134 564.209 132.048 560.751 128.143C557.293 124.212 555.564 118.793 555.564 111.887V111.13C555.564 104.489 557.28 99.1903 560.712 95.2325C564.145 91.2748 568.855 89.2959 574.842 89.2959C580.081 89.2959 584.275 90.8365 587.424 93.9177C590.598 96.9724 592.211 101.05 592.263 106.15H581.772C581.72 103.918 581.049 102.112 579.759 100.731C578.468 99.3231 576.765 98.6192 574.649 98.6192C572.042 98.6192 570.068 99.602 568.726 101.568C567.41 103.507 566.751 106.668 566.751 111.05V112.246C566.751 116.681 567.41 119.869 568.726 121.808C570.042 123.747 572.042 124.717 574.726 124.717Z"/>
<path d="M617.929 134C611.787 134 606.78 132.061 602.909 128.183C599.063 124.305 597.141 119.138 597.141 112.684V111.568C597.141 107.239 597.954 103.374 599.58 99.9739C601.205 96.5474 603.502 93.9177 606.47 92.0849C609.464 90.2256 612.871 89.2959 616.69 89.2959C622.42 89.2959 626.923 91.1552 630.201 94.8739C633.505 98.5926 635.156 103.865 635.156 110.692V115.393H608.483C608.845 118.209 609.929 120.467 611.735 122.167C613.568 123.867 615.877 124.717 618.665 124.717C622.975 124.717 626.343 123.11 628.769 119.895L634.266 126.231C632.588 128.674 630.317 130.587 627.452 131.968C624.588 133.323 621.413 134 617.929 134ZM616.652 98.6192C614.432 98.6192 612.626 99.3895 611.232 100.93C609.864 102.471 608.987 104.675 608.6 107.544H624.162V106.628C624.11 104.078 623.439 102.112 622.149 100.731C620.858 99.3231 619.026 98.6192 616.652 98.6192Z"/>
</mask>
<path d="M396.068 109.496H373.77V133.203H362.156V75.1914H398.856V84.8733H373.77V99.8543H396.068V109.496Z" fill="#FFFBFB"/>
<path d="M416.663 133.203H405.437V90.0928H416.663V133.203ZM404.779 78.9366C404.779 77.2101 405.334 75.789 406.443 74.6734C407.579 73.5578 409.114 73 411.05 73C412.96 73 414.483 73.5578 415.618 74.6734C416.754 75.789 417.321 77.2101 417.321 78.9366C417.321 80.6897 416.741 82.1241 415.579 83.2397C414.444 84.3553 412.934 84.9131 411.05 84.9131C409.166 84.9131 407.643 84.3553 406.482 83.2397C405.346 82.1241 404.779 80.6897 404.779 78.9366Z" fill="#FFFBFB"/>
<path d="M436.213 90.0928L436.562 95.0732C439.555 91.2216 443.568 89.2959 448.601 89.2959C453.04 89.2959 456.344 90.6373 458.511 93.3201C460.679 96.0028 461.789 100.014 461.841 105.353V133.203H450.653V105.632C450.653 103.188 450.137 101.422 449.104 100.332C448.072 99.2169 446.356 98.659 443.956 98.659C440.807 98.659 438.446 100.04 436.871 102.803V133.203H425.683V90.0928H436.213Z" fill="#FFFBFB"/>
<path d="M494.63 133.203C494.114 132.167 493.74 130.879 493.508 129.338C490.798 132.446 487.275 134 482.939 134C478.835 134 475.429 132.778 472.719 130.334C470.035 127.891 468.693 124.809 468.693 121.091C468.693 116.522 470.332 113.016 473.609 110.572C476.913 108.128 481.674 106.893 487.894 106.867H493.043V104.396C493.043 102.404 492.54 100.811 491.533 99.6153C490.552 98.42 488.991 97.8223 486.849 97.8223C484.965 97.8223 483.481 98.2872 482.397 99.2169C481.339 100.147 480.81 101.422 480.81 103.042H469.622C469.622 100.545 470.37 98.2341 471.867 96.1091C473.364 93.9841 475.48 92.324 478.216 91.1287C480.952 89.9068 484.023 89.2959 487.43 89.2959C492.591 89.2959 496.682 90.6373 499.701 93.3201C502.747 95.9763 504.27 99.7215 504.27 104.556V123.242C504.295 127.333 504.85 130.427 505.934 132.526V133.203H494.63ZM485.378 125.195C487.03 125.195 488.552 124.823 489.946 124.079C491.34 123.309 492.372 122.286 493.043 121.011V113.6H488.862C483.262 113.6 480.281 115.592 479.919 119.577L479.881 120.254C479.881 121.688 480.371 122.87 481.352 123.8C482.333 124.73 483.675 125.195 485.378 125.195Z" fill="#FFFBFB"/>
<path d="M523.161 90.0928L523.51 95.0732C526.503 91.2216 530.517 89.2959 535.549 89.2959C539.988 89.2959 543.292 90.6373 545.46 93.3201C547.627 96.0028 548.737 100.014 548.789 105.353V133.203H537.601V105.632C537.601 103.188 537.085 101.422 536.052 100.332C535.02 99.2169 533.304 98.659 530.904 98.659C527.755 98.659 525.394 100.04 523.819 102.803V133.203H512.631V90.0928H523.161Z" fill="#FFFBFB"/>
<path d="M574.726 124.717C576.791 124.717 578.468 124.132 579.759 122.963C581.049 121.795 581.72 120.241 581.772 118.302H592.263C592.237 121.224 591.463 123.906 589.94 126.35C588.417 128.767 586.327 130.653 583.669 132.008C581.036 133.336 578.12 134 574.92 134C568.932 134 564.209 132.048 560.751 128.143C557.293 124.212 555.564 118.793 555.564 111.887V111.13C555.564 104.489 557.28 99.1903 560.712 95.2325C564.145 91.2748 568.855 89.2959 574.842 89.2959C580.081 89.2959 584.275 90.8365 587.424 93.9177C590.598 96.9724 592.211 101.05 592.263 106.15H581.772C581.72 103.918 581.049 102.112 579.759 100.731C578.468 99.3231 576.765 98.6192 574.649 98.6192C572.042 98.6192 570.068 99.602 568.726 101.568C567.41 103.507 566.751 106.668 566.751 111.05V112.246C566.751 116.681 567.41 119.869 568.726 121.808C570.042 123.747 572.042 124.717 574.726 124.717Z" fill="#FFFBFB"/>
<path d="M617.929 134C611.787 134 606.78 132.061 602.909 128.183C599.063 124.305 597.141 119.138 597.141 112.684V111.568C597.141 107.239 597.954 103.374 599.58 99.9739C601.205 96.5474 603.502 93.9177 606.47 92.0849C609.464 90.2256 612.871 89.2959 616.69 89.2959C622.42 89.2959 626.923 91.1552 630.201 94.8739C633.505 98.5926 635.156 103.865 635.156 110.692V115.393H608.483C608.845 118.209 609.929 120.467 611.735 122.167C613.568 123.867 615.877 124.717 618.665 124.717C622.975 124.717 626.343 123.11 628.769 119.895L634.266 126.231C632.588 128.674 630.317 130.587 627.452 131.968C624.588 133.323 621.413 134 617.929 134ZM616.652 98.6192C614.432 98.6192 612.626 99.3895 611.232 100.93C609.864 102.471 608.987 104.675 608.6 107.544H624.162V106.628C624.11 104.078 623.439 102.112 622.149 100.731C620.858 99.3231 619.026 98.6192 616.652 98.6192Z" fill="#FFFBFB"/>
<path d="M396.068 109.496H373.77V133.203H362.156V75.1914H398.856V84.8733H373.77V99.8543H396.068V109.496Z" stroke="black" stroke-width="2" mask="url(#path-3-outside-1)"/>
<path d="M416.663 133.203H405.437V90.0928H416.663V133.203ZM404.779 78.9366C404.779 77.2101 405.334 75.789 406.443 74.6734C407.579 73.5578 409.114 73 411.05 73C412.96 73 414.483 73.5578 415.618 74.6734C416.754 75.789 417.321 77.2101 417.321 78.9366C417.321 80.6897 416.741 82.1241 415.579 83.2397C414.444 84.3553 412.934 84.9131 411.05 84.9131C409.166 84.9131 407.643 84.3553 406.482 83.2397C405.346 82.1241 404.779 80.6897 404.779 78.9366Z" stroke="black" stroke-width="2" mask="url(#path-3-outside-1)"/>
<path d="M436.213 90.0928L436.562 95.0732C439.555 91.2216 443.568 89.2959 448.601 89.2959C453.04 89.2959 456.344 90.6373 458.511 93.3201C460.679 96.0028 461.789 100.014 461.841 105.353V133.203H450.653V105.632C450.653 103.188 450.137 101.422 449.104 100.332C448.072 99.2169 446.356 98.659 443.956 98.659C440.807 98.659 438.446 100.04 436.871 102.803V133.203H425.683V90.0928H436.213Z" stroke="black" stroke-width="2" mask="url(#path-3-outside-1)"/>
<path d="M494.63 133.203C494.114 132.167 493.74 130.879 493.508 129.338C490.798 132.446 487.275 134 482.939 134C478.835 134 475.429 132.778 472.719 130.334C470.035 127.891 468.693 124.809 468.693 121.091C468.693 116.522 470.332 113.016 473.609 110.572C476.913 108.128 481.674 106.893 487.894 106.867H493.043V104.396C493.043 102.404 492.54 100.811 491.533 99.6153C490.552 98.42 488.991 97.8223 486.849 97.8223C484.965 97.8223 483.481 98.2872 482.397 99.2169C481.339 100.147 480.81 101.422 480.81 103.042H469.622C469.622 100.545 470.37 98.2341 471.867 96.1091C473.364 93.9841 475.48 92.324 478.216 91.1287C480.952 89.9068 484.023 89.2959 487.43 89.2959C492.591 89.2959 496.682 90.6373 499.701 93.3201C502.747 95.9763 504.27 99.7215 504.27 104.556V123.242C504.295 127.333 504.85 130.427 505.934 132.526V133.203H494.63ZM485.378 125.195C487.03 125.195 488.552 124.823 489.946 124.079C491.34 123.309 492.372 122.286 493.043 121.011V113.6H488.862C483.262 113.6 480.281 115.592 479.919 119.577L479.881 120.254C479.881 121.688 480.371 122.87 481.352 123.8C482.333 124.73 483.675 125.195 485.378 125.195Z" stroke="black" stroke-width="2" mask="url(#path-3-outside-1)"/>
<path d="M523.161 90.0928L523.51 95.0732C526.503 91.2216 530.517 89.2959 535.549 89.2959C539.988 89.2959 543.292 90.6373 545.46 93.3201C547.627 96.0028 548.737 100.014 548.789 105.353V133.203H537.601V105.632C537.601 103.188 537.085 101.422 536.052 100.332C535.02 99.2169 533.304 98.659 530.904 98.659C527.755 98.659 525.394 100.04 523.819 102.803V133.203H512.631V90.0928H523.161Z" stroke="black" stroke-width="2" mask="url(#path-3-outside-1)"/>
<path d="M574.726 124.717C576.791 124.717 578.468 124.132 579.759 122.963C581.049 121.795 581.72 120.241 581.772 118.302H592.263C592.237 121.224 591.463 123.906 589.94 126.35C588.417 128.767 586.327 130.653 583.669 132.008C581.036 133.336 578.12 134 574.92 134C568.932 134 564.209 132.048 560.751 128.143C557.293 124.212 555.564 118.793 555.564 111.887V111.13C555.564 104.489 557.28 99.1903 560.712 95.2325C564.145 91.2748 568.855 89.2959 574.842 89.2959C580.081 89.2959 584.275 90.8365 587.424 93.9177C590.598 96.9724 592.211 101.05 592.263 106.15H581.772C581.72 103.918 581.049 102.112 579.759 100.731C578.468 99.3231 576.765 98.6192 574.649 98.6192C572.042 98.6192 570.068 99.602 568.726 101.568C567.41 103.507 566.751 106.668 566.751 111.05V112.246C566.751 116.681 567.41 119.869 568.726 121.808C570.042 123.747 572.042 124.717 574.726 124.717Z" stroke="black" stroke-width="2" mask="url(#path-3-outside-1)"/>
<path d="M617.929 134C611.787 134 606.78 132.061 602.909 128.183C599.063 124.305 597.141 119.138 597.141 112.684V111.568C597.141 107.239 597.954 103.374 599.58 99.9739C601.205 96.5474 603.502 93.9177 606.47 92.0849C609.464 90.2256 612.871 89.2959 616.69 89.2959C622.42 89.2959 626.923 91.1552 630.201 94.8739C633.505 98.5926 635.156 103.865 635.156 110.692V115.393H608.483C608.845 118.209 609.929 120.467 611.735 122.167C613.568 123.867 615.877 124.717 618.665 124.717C622.975 124.717 626.343 123.11 628.769 119.895L634.266 126.231C632.588 128.674 630.317 130.587 627.452 131.968C624.588 133.323 621.413 134 617.929 134ZM616.652 98.6192C614.432 98.6192 612.626 99.3895 611.232 100.93C609.864 102.471 608.987 104.675 608.6 107.544H624.162V106.628C624.11 104.078 623.439 102.112 622.149 100.731C620.858 99.3231 619.026 98.6192 616.652 98.6192Z" stroke="black" stroke-width="2" mask="url(#path-3-outside-1)"/>
<path d="M681.257 119.198L681.257 119.198L681.264 119.205C682.353 120.342 682.922 121.899 682.922 123.938C682.922 125.876 682.302 127.374 681.093 128.49C679.88 129.583 678.203 130.156 676 130.156C673.345 130.156 671.373 129.372 670.006 127.863C668.656 126.318 667.945 124.071 667.945 121.047V120.547H667.445H656.156H655.656V121.047C655.656 126.48 657.143 130.893 660.16 134.234L660.163 134.237C663.122 137.458 667.236 139.37 672.453 140.008V147.297V147.797H672.953H679.164H679.664V147.297V139.971C684.383 139.415 688.151 137.767 690.924 134.994C693.791 132.127 695.211 128.4 695.211 123.859C695.211 121.44 694.839 119.303 694.08 117.459C693.326 115.601 692.234 113.957 690.808 112.531C689.389 111.086 687.657 109.808 685.616 108.695C683.587 107.562 681.001 106.368 677.867 105.114C674.78 103.869 672.742 102.678 671.674 101.561C670.634 100.473 670.094 99.0176 670.094 97.1406C670.094 95.0984 670.652 93.571 671.709 92.4903L671.709 92.4903L671.713 92.4864C672.767 91.3852 674.276 90.8047 676.312 90.8047C678.336 90.8047 679.908 91.5277 681.081 92.9647L681.081 92.9648L681.087 92.9717C682.28 94.3796 682.922 96.5718 682.922 99.6406V100.141H683.422H694.711H695.211V99.6406C695.211 94.4756 693.885 90.2278 691.192 86.9419C688.581 83.7299 684.998 81.7701 680.484 81.0463V73V72.5H679.984H673.734H673.234V73V80.911C668.686 81.4479 664.986 83.112 662.17 85.9277C659.253 88.8444 657.805 92.5834 657.805 97.1016C657.805 99.7049 658.216 101.977 659.057 103.903L659.057 103.903L659.06 103.909C659.92 105.816 661.103 107.485 662.609 108.91L662.609 108.91L662.616 108.916C664.137 110.304 665.945 111.539 668.035 112.624L668.04 112.626C670.117 113.678 672.583 114.739 675.433 115.812C678.246 116.87 680.164 118.008 681.257 119.198Z" fill="#23A718" stroke="black"/>
</g>
<defs>
<clipPath id="clip0">
<rect width="704" height="147" fill="white"/>
</clipPath>
</defs>
</svg>
